<svg width="103" height="103" viewBox="0 0 103 103" fill="none" xmlns="http://www.w3.org/2000/svg">
<circle cx="51.5" cy="51.5" r="51.5" fill="white"/>
<path d="M65.2189 77.2498C71.8532 77.2498 77.2313 71.8717 77.2313 65.2375C77.2313 58.6032 71.8532 53.2251 65.2189 53.2251C58.5847 53.2251 53.2065 58.6032 53.2065 65.2375C53.2065 71.8717 58.5847 77.2498 65.2189 77.2498Z" fill="#78D1F4"/>
<path opacity="0.15" d="M67.7926 74.6759C65.569 74.6799 63.3879 74.0667 61.4921 72.9045C59.5964 71.7423 58.0605 70.0767 57.0554 68.0932C56.0503 66.1097 55.6155 63.8861 55.7994 61.6701C55.9833 59.4541 56.7786 57.3326 58.0969 55.5419C56.7201 56.5745 55.5812 57.8909 54.7575 59.402C53.9337 60.9131 53.4442 62.5835 53.3222 64.3002C53.2002 66.0169 53.4485 67.7398 54.0503 69.3522C54.6521 70.9646 55.5934 72.4288 56.8103 73.6458C58.0273 74.8627 59.4915 75.804 61.1039 76.4058C62.7163 77.0076 64.4392 77.2559 66.1559 77.1339C67.8726 77.0119 69.5431 76.5224 71.0541 75.6987C72.5652 74.8749 73.8816 73.736 74.9143 72.3592C72.8507 73.876 70.3537 74.6883 67.7926 74.6759V74.6759Z" fill="#142683"/>
<path d="M54.8371 59.2317C52.0056 58.3736 51.4908 56.7434 51.4908 55.7996V54.0835C53.195 52.4582 54.3878 50.3708 54.9229 48.0773C57.068 48.0773 58.355 45.5033 58.355 42.9292C58.355 42.2428 58.355 39.4971 56.6389 39.4971C60.9291 27.0557 48.4019 22.3365 39.4784 28.3427C35.7031 28.3427 34.6735 34.0057 36.0463 39.4971C34.3303 39.4971 34.3303 42.2428 34.3303 42.9292C34.3303 45.5033 35.6173 48.0773 37.7624 48.0773C38.273 50.3803 39.4697 52.4744 41.1945 54.0835V55.7996C41.1945 57.1724 40.7655 58.8885 33.8154 60.2613C26.8654 61.6341 25.75 67.8119 25.75 67.8119H53.4642C52.8266 64.881 53.3168 61.8174 54.8371 59.2317V59.2317Z" fill="#A5D0EC"/>
<path opacity="0.15" d="M53.4642 67.8114C52.8266 64.8805 53.3168 61.8169 54.8371 59.2312L54.4081 59.0596C50.547 60.4324 49.2599 63.6929 48.4019 67.8114H53.55H53.4642ZM41.1945 48.0768C41.8809 50.6509 44.7124 52.6244 46.3426 54.083V55.7991C46.3426 57.1719 45.9136 58.888 38.9636 60.2608C32.0136 61.6336 30.8982 67.8114 30.8982 67.8114H25.75C25.75 67.8114 25.75 61.8052 33.8154 60.2608C41.8809 58.7163 41.1945 57.1719 41.1945 55.7991V54.083C39.4697 52.4739 38.273 50.3798 37.7624 48.0768C35.6173 48.0768 34.3303 45.5027 34.3303 42.9287C34.3303 42.2422 34.3303 39.4966 36.0463 39.4966C34.6735 34.0052 35.7031 28.3422 39.4784 28.3422C41.0263 27.2704 42.7702 26.5141 44.6105 26.1166C46.4509 25.7191 48.3515 25.6881 50.2037 26.0256C48.209 26.4189 46.3129 27.2065 44.6266 28.3422C40.8513 28.3422 38.1056 34.0052 39.4784 39.4966C39.4784 39.4966 39.4784 46.3608 41.1945 48.0768Z" fill="#142683"/>
<path d="M54.8371 59.2317C52.0056 58.3736 51.4908 56.7434 51.4908 55.7996V54.0835C53.195 52.4582 54.3878 50.3708 54.9229 48.0773C57.068 48.0773 58.355 45.5033 58.355 42.9292C58.355 42.2428 58.355 39.4971 56.6389 39.4971C60.9291 27.0557 48.4019 22.3365 39.4784 28.3427C35.7031 28.3427 34.6735 34.0057 36.0463 39.4971C34.3303 39.4971 34.3303 42.2428 34.3303 42.9292C34.3303 45.5033 35.6173 48.0773 37.7624 48.0773C38.3021 50.3689 39.4942 52.4551 41.1945 54.0835V55.7996C41.1945 57.1724 40.7655 58.8885 33.8154 60.2613C26.8654 61.6341 25.75 67.8119 25.75 67.8119H53.4642" stroke="#142683" stroke-width="1.5" stroke-linecap="round" stroke-linejoin="round"/>
<path d="M65.2189 77.2498C71.8532 77.2498 77.2313 71.8717 77.2313 65.2375C77.2313 58.6032 71.8532 53.2251 65.2189 53.2251C58.5847 53.2251 53.2065 58.6032 53.2065 65.2375C53.2065 71.8717 58.5847 77.2498 65.2189 77.2498Z" stroke="#142683" stroke-width="1.5" stroke-linecap="round" stroke-linejoin="round"/>
<path d="M65.2199 70.3864V60.0901M60.0718 65.2382H70.3681H60.0718Z" stroke="#142683" stroke-width="1.5" stroke-linecap="round" stroke-linejoin="round"/>
</svg>
